C:\Users\israe\Dropbox\PhDWork\Simulation\code\PassiveMoments\Data/trialAnkle_knee-15hip0_knee-60hip0.mot
nRows=129
nColumns=4

name C:\Users\israe\Dropbox\PhDWork\Simulation\code\PassiveMoments\Data/trialAnkle_knee-15hip0_knee-60hip0.mot
datacolumns 4
datarows 129
range 0.0000000000 1.2800000000
endheader
time	ankle_angle_r	knee_angle_r	hip_flexion_r
        0.0000000000	       15.0000000000	      -15.0000000000	        0.0000000000	
        0.0100000000	       14.4747474747	      -15.0000000000	        0.0000000000	
        0.0200000000	       13.9494949495	      -15.0000000000	       -0.0000000000	
        0.0300000000	       13.4242424242	      -15.0000000000	       -0.0000000000	
        0.0400000000	       12.8989898990	      -15.0000000000	       -0.0000000000	
        0.0500000000	       12.3737373737	      -15.0000000000	       -0.0000000000	
        0.0600000000	       11.8484848485	      -15.0000000000	       -0.0000000000	
        0.0700000000	       11.3232323232	      -15.0000000000	       -0.0000000000	
        0.0800000000	       10.7979797980	      -15.0000000000	       -0.0000000000	
        0.0900000000	       10.2727272727	      -15.0000000000	       -0.0000000000	
        0.1000000000	        9.7474747475	      -15.0000000000	       -0.0000000000	
        0.1100000000	        9.2222222222	      -15.0000000000	        0.0000000000	
        0.1200000000	        8.6969696970	      -15.0000000000	        0.0000000000	
        0.1300000000	        8.1717171717	      -15.0000000000	        0.0000000000	
        0.1400000000	        7.6464646465	      -15.0000000000	        0.0000000000	
        0.1500000000	        7.1212121212	      -15.0000000000	        0.0000000000	
        0.1600000000	        6.5959595960	      -15.0000000000	        0.0000000000	
        0.1700000000	        6.0707070707	      -15.0000000000	        0.0000000000	
        0.1800000000	        5.5454545455	      -15.0000000000	        0.0000000000	
        0.1900000000	        5.0202020202	      -15.0000000000	        0.0000000000	
        0.2000000000	        4.4949494949	      -15.0000000000	       -0.0000000000	
        0.2100000000	        3.9696969697	      -15.0000000000	       -0.0000000000	
        0.2200000000	        3.4444444444	      -15.0000000000	       -0.0000000000	
        0.2300000000	        2.9191919192	      -15.0000000000	       -0.0000000000	
        0.2400000000	        2.3939393939	      -15.0000000000	       -0.0000000000	
        0.2500000000	        1.8686868687	      -15.0000000000	       -0.0000000000	
        0.2600000000	        1.3434343434	      -15.0000000000	       -0.0000000000	
        0.2700000000	        0.8181818182	      -15.0000000000	       -0.0000000000	
        0.2800000000	        0.2929292929	      -15.0000000000	       -0.0000000000	
        0.2900000000	       -0.2323232323	      -15.0000000000	       -0.0000000000	
        0.3000000000	       -0.7575757576	      -15.0000000000	       -0.0000000000	
        0.3100000000	       -1.2828282828	      -15.0000000000	       -0.0000000000	
        0.3200000000	       -1.8080808081	      -15.0000000000	       -0.0000000000	
        0.3300000000	       -2.3333333333	      -15.0000000000	       -0.0000000000	
        0.3400000000	       -2.8585858586	      -15.0000000000	       -0.0000000000	
        0.3500000000	       -3.3838383838	      -15.0000000000	       -0.0000000000	
        0.3600000000	       -3.9090909091	      -15.0000000000	       -0.0000000000	
        0.3700000000	       -4.4343434343	      -15.0000000000	       -0.0000000000	
        0.3800000000	       -4.9595959596	      -15.0000000000	       -0.0000000000	
        0.3900000000	       -5.4848484848	      -15.0000000000	        0.0000000000	
        0.4000000000	       -6.0101010101	      -15.0000000000	        0.0000000000	
        0.4100000000	       -6.5353535354	      -15.0000000000	       -0.0000000000	
        0.4200000000	       -7.0606060606	      -15.0000000000	       -0.0000000000	
        0.4300000000	       -7.5858585859	      -15.0000000000	       -0.0000000000	
        0.4400000000	       -8.1111111111	      -15.0000000000	       -0.0000000000	
        0.4500000000	       -8.6363636364	      -15.0000000000	       -0.0000000000	
        0.4600000000	       -9.1616161616	      -15.0000000000	        0.0000000000	
        0.4700000000	       -9.6868686869	      -15.0000000000	        0.0000000000	
        0.4800000000	      -10.2121212121	      -15.0000000000	        0.0000000000	
        0.4900000000	      -10.7373737374	      -15.0000000000	        0.0000000000	
        0.5000000000	      -11.2626262626	      -15.0000000000	        0.0000000000	
        0.5100000000	      -11.7878787879	      -15.0000000000	        0.0000000000	
        0.5200000000	      -12.3131313131	      -15.0000000000	        0.0000000000	
        0.5300000000	      -12.8383838384	      -15.0000000000	        0.0000000000	
        0.5400000000	      -13.3636363636	      -15.0000000000	        0.0000000000	
        0.5500000000	      -13.8888888889	      -15.0000000000	        0.0000000000	
        0.5600000000	      -14.4141414141	      -15.0000000000	        0.0000000000	
        0.5700000000	      -14.9393939394	      -15.0000000000	        0.0000000000	
        0.5800000000	      -15.4646464646	      -15.0000000000	        0.0000000000	
        0.5900000000	      -15.9898989899	      -15.0000000000	        0.0000000000	
        0.6000000000	      -16.5151515152	      -15.0000000000	        0.0000000000	
        0.6100000000	      -17.0404040404	      -15.0000000000	       -0.0000000000	
        0.6200000000	      -17.5656565657	      -15.0000000000	       -0.0000000000	
        0.6300000000	      -18.0909090909	      -15.0000000000	       -0.0000000000	
        0.6400000000	      -18.6161616162	      -15.0000000000	       -0.0000000000	
        0.6500000000	      -19.1414141414	      -15.0000000000	       -0.0000000000	
        0.6600000000	      -19.6666666667	      -15.0000000000	       -0.0000000000	
        0.6700000000	      -20.1919191919	      -15.0000000000	       -0.0000000000	
        0.6800000000	      -20.7171717172	      -15.0000000000	       -0.0000000000	
        0.6900000000	      -21.2424242424	      -15.0000000000	        0.0000000000	
        0.7000000000	      -21.7676767677	      -15.0000000000	        0.0000000000	
        0.7100000000	      -22.2929292929	      -15.0000000000	        0.0000000000	
        0.7200000000	      -22.8181818182	      -15.0000000000	        0.0000000000	
        0.7300000000	      -23.3434343434	      -15.0000000000	        0.0000000000	
        0.7400000000	      -23.8686868687	      -15.0000000000	        0.0000000000	
        0.7500000000	      -24.3939393939	      -15.0000000000	        0.0000000000	
        0.7600000000	      -24.9191919192	      -15.0000000000	        0.0000000000	
        0.7700000000	      -25.4444444444	      -15.0000000000	       -0.0000000000	
        0.7800000000	      -25.9696969697	      -15.0000000000	       -0.0000000000	
        0.7900000000	      -26.4949494949	      -15.0000000000	       -0.0000000000	
        0.8000000000	      -27.0202020202	      -15.0000000000	       -0.0000000000	
        0.8100000000	      -27.5454545455	      -15.0000000000	       -0.0000000000	
        0.8200000000	      -28.0707070707	      -15.0000000000	       -0.0000000000	
        0.8300000000	      -28.5959595960	      -15.0000000000	       -0.0000000000	
        0.8400000000	      -29.1212121212	      -15.0000000000	        0.0000000000	
        0.8500000000	      -29.6464646465	      -15.0000000000	        0.0000000000	
        0.8600000000	      -30.1717171717	      -15.0000000000	        0.0000000000	
        0.8700000000	      -30.6969696970	      -15.0000000000	        0.0000000000	
        0.8800000000	      -31.2222222222	      -15.0000000000	        0.0000000000	
        0.8900000000	      -31.7474747475	      -15.0000000000	        0.0000000000	
        0.9000000000	      -32.2727272727	      -15.0000000000	        0.0000000000	
        0.9100000000	      -32.7979797980	      -15.0000000000	        0.0000000000	
        0.9200000000	      -33.3232323232	      -15.0000000000	       -0.0000000000	
        0.9300000000	      -33.8484848485	      -15.0000000000	       -0.0000000000	
        0.9400000000	      -34.3737373737	      -15.0000000000	       -0.0000000000	
        0.9500000000	      -34.8989898990	      -15.0000000000	       -0.0000000000	
        0.9600000000	      -35.4242424242	      -15.0000000000	       -0.0000000000	
        0.9700000000	      -35.9494949495	      -15.0000000000	       -0.0000000000	
        0.9800000000	      -36.4747474747	      -15.0000000000	       -0.0000000000	
        0.9900000000	      -37.0000000000	      -15.0000000000	       -0.0000000000	
        1.0000000000	       15.0000000000	      -60.0000000000	        0.0000000000	
        1.0100000000	       14.4747474747	      -60.0000000000	        0.0000000000	
        1.0200000000	       13.9494949495	      -60.0000000000	        0.0000000000	
        1.0300000000	       13.4242424242	      -60.0000000000	        0.0000000000	
        1.0400000000	       12.8989898990	      -60.0000000000	        0.0000000000	
        1.0500000000	       12.3737373737	      -60.0000000000	        0.0000000000	
        1.0600000000	       11.8484848485	      -60.0000000000	        0.0000000000	
        1.0700000000	       11.3232323232	      -60.0000000000	        0.0000000000	
        1.0800000000	       10.7979797980	      -60.0000000000	        0.0000000000	
        1.0900000000	       10.2727272727	      -60.0000000000	        0.0000000000	
        1.1000000000	        9.7474747475	      -60.0000000000	        0.0000000000	
        1.1100000000	        9.2222222222	      -60.0000000000	        0.0000000000	
        1.1200000000	        8.6969696970	      -60.0000000000	        0.0000000000	
        1.1300000000	        8.1717171717	      -60.0000000000	        0.0000000000	
        1.1400000000	        7.6464646465	      -60.0000000000	        0.0000000000	
        1.1500000000	        7.1212121212	      -60.0000000000	        0.0000000000	
        1.1600000000	        6.5959595960	      -60.0000000000	       -0.0000000000	
        1.1700000000	        6.0707070707	      -60.0000000000	       -0.0000000000	
        1.1800000000	        5.5454545455	      -60.0000000000	       -0.0000000000	
        1.1900000000	        5.0202020202	      -60.0000000000	       -0.0000000000	
        1.2000000000	        4.4949494949	      -60.0000000000	       -0.0000000000	
        1.2100000000	        3.9696969697	      -60.0000000000	       -0.0000000000	
        1.2200000000	        3.4444444444	      -60.0000000000	       -0.0000000000	
        1.2300000000	        2.9191919192	      -60.0000000000	       -0.0000000000	
        1.2400000000	        2.3939393939	      -60.0000000000	       -0.0000000000	
        1.2500000000	        1.8686868687	      -60.0000000000	       -0.0000000000	
        1.2600000000	        1.3434343434	      -60.0000000000	       -0.0000000000	
        1.2700000000	        0.8181818182	      -60.0000000000	       -0.0000000000	
        1.2800000000	        0.2929292929	      -60.0000000000	       -0.0000000000	
